# xmcd
#
# Track frame offsets: 
#        150
#        49004
#        92101
#        114266
#        142187
#        175253
#        190737
#        194761
#        257367
#        282478
#        291344
#
# Disc length: 4272 seconds
#
# Revision: 0
# Processed by: cddbd v1.5.2PL0 Copyright (c) Steve Scherf et al.
# Submitted via: ExactAudioCopy v1.0b1
#
DISCID=a910ae0b
DTITLE=Quatuor Talich - Beethoven  Integrale des Quatuors a Cordes CD6
DYEAR=2010
DGENRE=Classical
TTITLE0=Quartet In C Major, Op.59 No.3: 1. Introduzione. Andante con m
TTITLE0=oto - Allegro vivace
TTITLE1=Quartet In C Major, Op.59 No.3: 2. Andante con moto quasi alle
TTITLE1=gretto
TTITLE2=Quartet In C Major, Op.59 No.3: 3. Menuetto. Grazioso
TTITLE3=Quartet In C Major, Op.59 No.3: 4. Allegro molto
TTITLE4=Quartet In C Sharp Minor, Op.131: 1. Adagio ma non troppo e mo
TTITLE4=lto espressivo 
TTITLE5=Quartet In C Sharp Minor, Op.131: 2. Allegro molto vivace
TTITLE6=Quartet In C Sharp Minor, Op.131: 3. Allegro moderato 
TTITLE7=Quartet In C Sharp Minor, Op.131: 4. Andante ma non troppo e m
TTITLE7=olto cantabile - Piu mosso
TTITLE8=Quartet In C Sharp Minor, Op.131: 5. Presto 
TTITLE9=Quartet In C Sharp Minor, Op.131: 6. Adagio quasi un poco anda
TTITLE9=nte 
TTITLE10=Quartet In C Sharp Minor, Op.131: 7. Allegro
EXTD=
EXTT0=
EXTT1=
EXTT2=
EXTT3=
EXTT4=
EXTT5=
EXTT6=
EXTT7=
EXTT8=
EXTT9=
EXTT10=
PLAYORDER=
